<svg version="1.1" xmlns="http://www.w3.org/2000/svg" xmlns:xlink="http://www.w3.org/1999/xlink" width="59.37546" height="59.00242" viewBox="0,0,59.37546,59.00242"><g transform="translate(-210.31227,-150.5013)"><g data-paper-data="{&quot;isPaintingLayer&quot;:true}" fill="none" fill-rule="nonzero" stroke="none" stroke-width="none" stroke-linecap="butt" stroke-linejoin="miter" stroke-miterlimit="10" stroke-dasharray="" stroke-dashoffset="0" font-family="none" font-weight="none" font-size="none" text-anchor="none" style="mix-blend-mode: normal"><path d="M210.81227,196.6561v-33.98198l27.89085,-11.62907l26.54671,11.62907v33.98198l-25.87464,12.29885z" data-paper-data="{&quot;origPos&quot;:null}" fill="#00d5ff" stroke="#001026" stroke-width="1"/><g data-paper-data="{&quot;origPos&quot;:null}" stroke="none" stroke-width="1"><path d="M251.47846,194.35574c-1.21537,0.86674 -2.7019,1.36548 -4.41117,1.46716c-0.70695,0.04358 -1.39453,0.08231 -2.0579,0.11137c-0.36316,0.02421 -1.99979,0.15011 -7.49076,0.5859c-0.03874,0.00484 -0.08231,0.00484 -0.12589,0.00968c-0.94905,0.05326 -2.56148,0.20337 -4.79854,0.45032c-1.7238,0.31474 -2.17411,0.368 -2.69706,0.368c-2.30969,0 -4.3918,-0.91032 -5.85412,-2.55664c-0.73116,-0.82316 -1.18632,-1.85453 -1.31221,-2.94401c-0.092,-0.83285 -0.28084,-2.50821 0.68758,-4.16422c0.50358,-0.87642 1.45264,-2.10148 3.11348,-2.91011v-2.12085c0,-0.86674 -0.07748,-2.7019 -0.45032,-6.53202c-1.80126,-0.71179 -3.14738,-2.08211 -3.77201,-3.8979c-0.00968,-0.02905 -0.01937,-0.05811 -0.02905,-0.092c-0.26147,-0.79411 -0.39221,-1.5979 -0.39221,-2.39201c0,-2.46464 1.65116,-6.63855 7.83939,-6.63855c0.57137,0 1.23474,0.05811 2.12569,0.184c0.06779,0.00484 0.12589,0.00484 0.184,0.00484c0.66821,-0.07748 1.84969,-0.15495 4.73559,-0.18884h0.06779c2.57601,0 4.14486,1.09432 5.01159,2.01916c1.1379,1.21053 1.76253,2.82296 1.76253,4.53706c0,2.41621 -1.17179,4.51285 -3.13769,5.64107c-0.37768,0.2179 -0.77958,0.4019 -1.20085,0.552c0.01937,0.29053 0.04358,0.5859 0.06779,0.89579c0.00968,0.13074 0.01452,0.26147 0.01452,0.39221v2.02885c0.00968,0.20821 0.06295,1.03137 0.37768,4.16906c0.05326,-0.00484 0.10653,-0.00968 0.15979,-0.01452c-0.03389,-0.184 -0.06779,-0.35831 -0.10168,-0.53263c-0.25663,-1.29769 -0.01937,-2.63411 0.64884,-3.75748c0.50842,-1.05558 1.33642,-1.97074 2.4259,-2.63411c1.14758,-0.70211 2.46948,-1.07495 3.81074,-1.07495c1.13305,0 2.23222,0.29537 3.18612,0.84737c1.05558,0.61495 2.41621,1.83516 3.06022,4.2078c0.31958,1.18632 0.41158,2.32421 0.28084,3.39917c-0.01452,0.14526 -0.03874,0.76506 0.16463,2.25643c0.12589,0.25179 0.24211,0.51327 0.35831,0.79895c0.11137,0.27116 0.20337,0.54716 0.26631,0.828c0.60526,2.59054 -0.36316,5.15686 -2.5179,6.69665z" id="ID0.2016247776336968" fill="#d8ae00"/><path d="M248.80997,188.86817c0.11234,0.48324 -0.02954,0.86674 -0.42659,1.15c-0.39705,0.28423 -0.94373,0.44741 -1.64002,0.49003c-0.6963,0.04261 -1.36935,0.07844 -2.02303,0.10653c-0.42562,0.02663 -2.96725,0.22564 -7.62343,0.59606c-1.07931,0.06004 -2.83942,0.22516 -5.2813,0.49438c-1.13596,0.21063 -1.77464,0.31474 -1.91651,0.31474c-0.79556,0 -1.4202,-0.25566 -1.8739,-0.76699c-0.05714,-0.51133 -0.05714,-0.80912 0,-0.89434c0.3404,-0.62415 0.97908,-0.97956 1.91651,-1.06478c0.76651,-0.05666 1.51897,-0.11282 2.2574,-0.17044c0.02809,0 0.05617,-0.02857 0.08522,-0.0857c0.05666,-1.16356 -0.08522,-2.49805 -0.4261,-4.00347v-2.38523c0,-1.47636 -0.17044,-3.94633 -0.51133,-7.41134c-0.05714,-0.85173 -0.14236,-2.08695 -0.25518,-3.70519c-0.17044,-0.11282 -0.39802,-0.15543 -0.68128,-0.12783c-0.36946,0.05714 -0.59606,0.07069 -0.68128,0.04261c-0.4261,-0.05859 -0.86674,-0.11621 -1.32093,-0.1748c-0.56798,-0.11718 -0.9229,-0.38011 -1.06429,-0.78926c-0.0857,-0.26293 -0.12832,-0.51133 -0.12832,-0.74472c0,-0.87691 0.8372,-1.31512 2.51306,-1.31512c0.3404,0 0.87933,0.05714 1.61823,0.17044c0.59606,0.02905 0.99408,0.02905 1.19261,0c0.59606,-0.08522 2.02982,-0.14187 4.30222,-0.17044c0.53893,0 0.91565,0.1133 1.12821,0.33992c0.21305,0.22709 0.31958,0.5244 0.31958,0.8924c0,0.51085 -0.1564,0.85076 -0.46871,1.02023c-0.42562,0.25518 -1.09335,0.36849 -2.00173,0.33992c-1.13645,-0.02809 -1.86034,-0.01404 -2.17217,0.04261c0.05666,1.36064 0.18448,3.38609 0.3835,6.07734v2.08308c0,0.45371 0.17044,2.35182 0.51133,5.6953c0.08522,0.76554 0.19805,1.96929 0.3404,3.6127c0.05666,0.09975 0.12832,0.14914 0.21305,0.14914c1.02169,0.1564 1.95912,0.20627 2.81085,0.14914c1.05025,-0.08522 2.11504,-0.17044 3.19483,-0.25518c0.68128,-0.02809 1.36257,-0.07069 2.04435,-0.12832c0.90887,-0.05617 1.80272,-0.19805 2.68302,-0.42562c0,-0.31232 -0.07069,-0.82316 -0.21257,-1.5335c-0.17044,-0.87933 -0.27068,-1.39066 -0.29779,-1.53302c0.0276,-0.28375 0.04261,-0.69581 0.04261,-1.23571c-0.1133,-0.73745 -0.22807,-1.39066 -0.3404,-1.95912c0.0276,0 0.08522,-0.04261 0.17044,-0.12783c-0.02954,-0.25518 0.12009,-0.48228 0.44741,-0.68128c0.32539,-0.19853 0.67354,-0.29828 1.04299,-0.29828c0.19853,0 0.36897,0.04261 0.51085,0.12832c0.25615,0.14236 0.45419,0.4755 0.59655,1.00038c0.14187,0.52585 0.18448,0.98683 0.12783,1.38436c-0.1133,1.02169 0,2.5702 0.3404,4.64214c0.16948,0.22903 0.35396,0.58348 0.55346,1.06575z" id="ID0.40692060021683574" fill="#ffffff"/></g><g data-paper-data="{&quot;origPos&quot;:null}"><path d="M249.05951,193.12396l-2.72211,-0.4203c0,0 0.78399,-11.80697 10.71783,-11.84851c9.65789,-0.04039 11.57245,11.83001 11.57245,11.83001l-2.99237,0.60219c0,0 -1.55995,-9.05403 -8.54729,-9.38009c-6.64645,-0.31016 -8.02849,9.21671 -8.02849,9.21671z" data-paper-data="{&quot;origPos&quot;:null}" fill="#6ef3ff" stroke="#001026" stroke-width="1"/><path d="M245.3293,206.84074v-15.6816h23.85843v15.6816z" data-paper-data="{&quot;origPos&quot;:null}" fill="#6ef3ff" stroke="#001026" stroke-width="1"/><path d="M253.95417,196.81571c0,-1.8868 1.52955,-3.41635 3.41635,-3.41635c1.8868,0 3.15939,1.54713 3.41635,3.41635c0.22402,1.62967 -1.77221,2.74066 -1.77221,2.74066l1.51418,5.24695l-6.74268,0.0212l1.75293,-5.52159c0,0 -1.58491,-0.60043 -1.58491,-2.48723z" data-paper-data="{&quot;origPos&quot;:null}" fill="#000000" stroke="none" stroke-width="0"/></g></g></g></svg>